<?xml version="1.0" encoding="UTF-8" standalone="no"?>
<svg width="56px" height="62px" viewBox="0 0 56 62" version="1.1" xmlns="http://www.w3.org/2000/svg" xmlns:xlink="http://www.w3.org/1999/xlink">
    <!-- Generator: Sketch 3.6.1 (26313) - http://www.bohemiancoding.com/sketch -->
    <title>medical</title>
    <desc>Created with Sketch.</desc>
    <defs></defs>
    <g id="Page-1" stroke="none" stroke-width="1" fill="none" fill-rule="evenodd">
        <g id="Desktop" transform="translate(-166.000000, -793.000000)" fill="#D80027">
            <g id="First-row" transform="translate(42.000000, 793.000000)">
                <g id="medical" transform="translate(124.000000, 0.000000)">
                    <g id="Capa_1">
                        <g id="Group">
                            <path d="M17.1704096,29.7875853 C16.7398169,31.7417235 14.9831711,33.2095032 12.886747,33.2095032 C12.3278265,33.2095032 11.8746988,33.6590367 11.8746988,34.2138229 C11.8746988,34.7686091 12.3278265,35.2181425 12.886747,35.2181425 C16.0948048,35.2181425 18.7595952,32.8670972 19.2243277,29.8100821 C21.1885108,29.5993089 23.0016964,28.7307732 24.4053398,27.3090583 C24.7965301,26.9128207 24.7899181,26.2768855 24.3906313,25.8888164 C23.9914795,25.5008812 23.3506506,25.507041 22.9594602,25.9032786 C21.7181494,27.1606868 20.0578506,27.8531317 18.2843373,27.8531317 C14.6756434,27.8531317 11.739759,24.9396674 11.739759,21.3585313 C11.739759,20.8037451 11.2866313,20.3542117 10.7277108,20.3542117 C10.1687904,20.3542117 9.71566265,20.8037451 9.71566265,21.3585313 C9.71566265,25.672419 12.9702747,29.2436458 17.1704096,29.7875853 L17.1704096,29.7875853 Z" id="Shape"></path>
                            <path d="M21.4554217,38.4989201 C21.4554217,37.9441339 21.002294,37.4946004 20.4433735,37.4946004 C15.7185928,37.4946004 11.8746988,41.3091404 11.8746988,45.9978402 C11.8746988,46.0463153 11.876453,46.0949244 11.8772627,46.1435335 C11.5009157,46.0931836 11.1176867,46.0647948 10.7277108,46.0647948 C10.1687904,46.0647948 9.71566265,46.5143283 9.71566265,47.0691145 C9.71566265,47.6239006 10.1687904,48.0734341 10.7277108,48.0734341 C14.3364048,48.0734341 17.2722892,50.9868985 17.2722892,54.5680346 C17.2722892,55.1228207 17.7254169,55.5723542 18.2843373,55.5723542 C18.8432578,55.5723542 19.2963855,55.1228207 19.2963855,54.5680346 C19.2963855,51.0045745 17.0750072,47.9479611 13.935094,46.6851965 C13.9110747,46.4576847 13.8987952,46.2274946 13.8987952,45.9978402 C13.8987952,42.4167041 16.8346795,39.5032397 20.4433735,39.5032397 C21.002294,39.5032397 21.4554217,39.0537063 21.4554217,38.4989201 L21.4554217,38.4989201 Z" id="Shape"></path>
                            <path d="M56,29.9287257 C56,27.6422246 55.0797108,25.4754384 53.453012,23.8819179 C53.710612,23.064 53.8409639,22.2179611 53.8409639,21.3585313 C53.8409639,17.224216 50.8517783,13.771365 46.9058699,13.0120994 C47.2074602,12.2660907 47.3638554,11.4663844 47.3638554,10.6457883 C47.3638554,8.02692441 45.7603663,5.7732311 43.4767807,4.79917495 C39.6721542,1.79210799 35.5110169,0 32.3180723,0 C30.5432096,0 28.9692723,0.86612527 28,2.19396976 C27.0307277,0.86612527 25.4567904,0 23.6819277,0 C20.4889831,0 16.3278458,1.79210799 12.5232193,4.79917495 C10.2396337,5.7732311 8.63614458,8.02692441 8.63614458,10.6457883 C8.63614458,11.4663844 8.79253976,12.2660907 9.09413012,13.0120994 C5.14822169,13.771365 2.15903614,17.224216 2.15903614,21.3585313 C2.15903614,22.2179611 2.28925301,23.0638661 2.54698795,23.8819179 C0.920289157,25.4754384 0,27.6422246 0,29.9287257 C0,31.7161469 0.55986506,33.3756847 1.51307952,34.7461123 C0.522486747,36.1671577 0,37.8248207 0,39.5701944 C0,42.661892 1.69848675,45.4946091 4.3877012,46.9882333 C4.34141687,47.3701425 4.31807229,47.7555335 4.31807229,48.1403888 C4.31807229,52.3108596 7.05937349,55.9980518 11.0367229,57.2546566 C12.7667855,60.1928942 15.9181687,62 19.3638554,62 C23.141494,62 26.4170217,59.8332138 28,56.6872829 C29.5829783,59.8332138 32.858506,62 36.6361446,62 C40.0818313,62 43.2332145,60.1928942 44.9632771,57.2546566 C48.9406265,55.9979179 51.6819277,52.3107257 51.6819277,48.1403888 C51.6819277,47.7555335 51.6585831,47.3701425 51.6122988,46.9882333 C54.3015133,45.4946091 56,42.661892 56,39.5701944 C56,37.8248207 55.4775133,36.1671577 54.4869205,34.7461123 C55.4401349,33.3756847 56,31.7161469 56,29.9287257 L56,29.9287257 Z M19.3638554,59.9913607 C16.5262072,59.9913607 13.9404916,58.4388164 12.615653,55.9398013 C12.4843566,55.692203 12.2552289,55.5102203 11.9830554,55.4375076 C8.66178313,54.5504924 6.34216867,51.5498531 6.34216867,48.1403888 C6.34216867,47.6301944 6.39398554,47.1191965 6.49613494,46.6213218 C6.59086265,46.1597365 6.34945542,45.6946695 5.9156241,45.5031793 C3.55161446,44.4602937 2.02409639,42.1313434 2.02409639,39.5701944 C2.02409639,38.4053175 2.32852048,37.2918618 2.90943614,36.3056199 C4.42022169,37.6274384 6.40100241,38.4319654 8.5686747,38.4319654 C9.12759518,38.4319654 9.58072289,37.982432 9.58072289,37.4276458 C9.58072289,36.8728596 9.12759518,36.4233261 8.5686747,36.4233261 C4.95998072,36.4233261 2.02409639,33.5098618 2.02409639,29.9287257 C2.02409639,28.0009676 2.88123373,26.1840864 4.37582651,24.9444881 C4.7131759,24.6646177 4.8298988,24.200622 4.66459759,23.7963499 C4.34506024,23.0148553 4.18313253,22.1946609 4.18313253,21.3585313 C4.18313253,17.7773952 7.11901687,14.8639309 10.7277108,14.8639309 C14.3364048,14.8639309 17.2722892,17.7773952 17.2722892,21.3585313 C17.2722892,21.9133175 17.7254169,22.362851 18.2843373,22.362851 C18.8432578,22.362851 19.2963855,21.9133175 19.2963855,21.3585313 C19.2963855,16.8535551 15.7472,13.1575248 11.2781301,12.8747084 C10.873041,12.2027516 10.660241,11.4386652 10.660241,10.6457883 C10.660241,8.85555508 11.755412,7.31479482 13.3155855,6.64739093 C13.3759036,6.62958099 13.4350072,6.60628078 13.4920867,6.57682073 C13.975441,6.39443629 14.4988723,6.2937365 15.0457831,6.2937365 C16.7402217,6.2937365 18.2528964,7.23391361 18.9935807,8.74762419 C19.2378217,9.2467041 19.8434313,9.45479914 20.3460819,9.21228942 C20.8488675,8.97004752 21.0585639,8.36919654 20.8143229,7.87025054 C19.9687904,6.14241901 18.3685398,4.90054428 16.5256675,4.46065227 C19.1086843,2.89659179 21.6516241,2.00863931 23.6819277,2.00863931 C25.5048289,2.00863931 26.9879518,3.48030238 26.9879518,5.28941685 L26.9879518,18.2854471 C26.0785928,17.569568 24.9301205,17.1403888 23.6819277,17.1403888 C23.1230072,17.1403888 22.6698795,17.5899222 22.6698795,18.1447084 C22.6698795,18.6994946 23.1230072,19.1490281 23.6819277,19.1490281 C25.5048289,19.1490281 26.9879518,20.6206911 26.9879518,22.4298056 L26.9879518,46.570838 C25.7296386,44.9597754 23.9557205,43.743879 21.869012,43.187486 C21.329388,43.0440691 20.7741108,43.3611663 20.6290506,43.8968035 C20.4839904,44.4325745 20.8040675,44.9834773 21.3438265,45.1272959 C24.666988,46.0133737 26.9879518,49.0144147 26.9879518,52.425486 C26.9879518,56.5972959 23.5677687,59.9913607 19.3638554,59.9913607 L19.3638554,59.9913607 Z M50.0843759,45.5033132 C49.6505446,45.6948035 49.4091373,46.1597365 49.5038651,46.6214557 C49.6060145,47.1193305 49.6578313,47.6303283 49.6578313,48.1405227 C49.6578313,51.549987 47.3382169,54.5506263 44.0169446,55.4376415 C43.7447711,55.5103542 43.5155084,55.6923369 43.384347,55.9399352 C42.0595084,58.4388164 39.4737928,59.9913607 36.6361446,59.9913607 C32.4322313,59.9913607 29.0120482,56.5972959 29.0120482,52.425486 C29.0120482,52.1430713 28.9988241,51.863067 28.9741301,51.5857408 C28.9981494,51.499905 29.0120482,51.409784 29.0120482,51.3163153 L29.0120482,18.1447084 C29.0120482,16.335594 30.4951711,14.8639309 32.3180723,14.8639309 C32.8769928,14.8639309 33.3301205,14.4143974 33.3301205,13.8596112 C33.3301205,13.3048251 32.8769928,12.8552916 32.3180723,12.8552916 C31.0698795,12.8552916 29.9214072,13.2844708 29.0120482,14.0003499 L29.0120482,5.28941685 C29.0120482,3.48030238 30.4951711,2.00863931 32.3180723,2.00863931 C34.3483759,2.00863931 36.8913157,2.89659179 39.4743325,4.46065227 C37.6314602,4.90041037 36.0312096,6.14241901 35.1856771,7.87025054 C34.9414361,8.36933045 35.1511325,8.97018143 35.6539181,9.21228942 C36.1567036,9.45466523 36.7621783,9.2467041 37.0064193,8.74762419 C37.7471036,7.23391361 39.2597783,6.2937365 40.9542169,6.2937365 C41.5011277,6.2937365 42.024694,6.39443629 42.5079133,6.57682073 C42.5648578,6.60628078 42.6239614,6.62944708 42.6840096,6.64725702 C44.244453,7.31466091 45.339759,8.85542117 45.339759,10.6457883 C45.339759,11.4386652 45.126959,12.2027516 44.7218699,12.8747084 C40.2528,13.1575248 36.7036145,16.8535551 36.7036145,21.3585313 C36.7036145,21.9133175 37.1567422,22.362851 37.7156627,22.362851 C38.2745831,22.362851 38.7277108,21.9133175 38.7277108,21.3585313 C38.7277108,17.7773952 41.6635952,14.8639309 45.2722892,14.8639309 C48.8809831,14.8639309 51.8168675,17.7773952 51.8168675,21.3585313 C51.8168675,22.1946609 51.6549398,23.0148553 51.3355373,23.7963499 C51.1702361,24.2007559 51.286959,24.6646177 51.6243084,24.9444881 C53.1187663,26.1840864 53.9759036,28.0009676 53.9759036,29.9287257 C53.9759036,33.5098618 51.0400193,36.4233261 47.4313253,36.4233261 C46.8724048,36.4233261 46.4192771,36.8728596 46.4192771,37.4276458 C46.4192771,37.982432 46.8724048,38.4319654 47.4313253,38.4319654 C49.5989976,38.4319654 51.5797783,37.6274384 53.0905639,36.3056199 C53.6716145,37.2918618 53.9759036,38.4053175 53.9759036,39.5701944 C53.9759036,42.1313434 52.4483855,44.4602937 50.0843759,45.5033132 L50.0843759,45.5033132 Z" id="Shape"></path>
                            <path d="M45.2722892,32.1382289 C43.1758651,32.1382289 41.4192193,30.6704492 40.9886265,28.716311 C45.1887614,28.1723715 48.4433735,24.6011447 48.4433735,20.287257 C48.4433735,19.7324708 47.9902458,19.2829374 47.4313253,19.2829374 C46.8724048,19.2829374 46.4192771,19.7324708 46.4192771,20.287257 C46.4192771,23.8683931 43.4833928,26.7818575 39.8746988,26.7818575 C38.1011855,26.7818575 36.4408867,26.0894125 35.1995759,24.8320043 C34.8085205,24.4359006 34.1676916,24.4293391 33.7684048,24.8175421 C33.3691181,25.2057451 33.362506,25.8415464 33.7536964,26.237784 C35.1573398,27.6594989 36.9705253,28.5280346 38.9347084,28.7388078 C39.399441,31.7958229 42.0642313,34.1468683 45.2722892,34.1468683 C45.8312096,34.1468683 46.2843373,33.6973348 46.2843373,33.1425486 C46.2843373,32.5877624 45.8312096,32.1382289 45.2722892,32.1382289 L45.2722892,32.1382289 Z" id="Shape"></path>
                            <path d="M42.0337349,43.9222462 C41.643759,43.9222462 41.2605301,43.950635 40.8841831,44.0009849 C40.8849928,43.9523758 40.886747,43.9037667 40.886747,43.8552916 C40.886747,39.1665918 37.042853,35.3520518 32.3180723,35.3520518 C31.7591518,35.3520518 31.3060241,35.8015853 31.3060241,36.3563715 C31.3060241,36.9111577 31.7591518,37.3606911 32.3180723,37.3606911 C35.9267663,37.3606911 38.8626506,40.2741555 38.8626506,43.8552916 C38.8626506,44.0848121 38.8503711,44.3151361 38.8263518,44.5426479 C35.6864386,45.8054125 33.4650602,48.8620259 33.4650602,52.425486 C33.4650602,52.9802721 33.918188,53.4298056 34.4771084,53.4298056 C35.0360289,53.4298056 35.4891566,52.9802721 35.4891566,52.425486 C35.4891566,48.8443499 38.425041,45.9308855 42.0337349,45.9308855 C42.5926554,45.9308855 43.0457831,45.4813521 43.0457831,44.9265659 C43.0457831,44.3717797 42.5926554,43.9222462 42.0337349,43.9222462 L42.0337349,43.9222462 Z" id="Shape"></path>
                        </g>
                    </g>
                </g>
            </g>
        </g>
    </g>
</svg>