<?xml version="1.0" encoding="UTF-8" standalone="no"?>
<svg width="62px" height="62px" viewBox="0 0 62 62" version="1.1" xmlns="http://www.w3.org/2000/svg" xmlns:xlink="http://www.w3.org/1999/xlink">
    <!-- Generator: Sketch 3.6.1 (26313) - http://www.bohemiancoding.com/sketch -->
    <title>shapes</title>
    <desc>Created with Sketch.</desc>
    <defs></defs>
    <g id="Page-1" stroke="none" stroke-width="1" fill="none" fill-rule="evenodd">
        <g id="Desktop" transform="translate(-802.000000, -795.000000)" fill="#91DC5A">
            <g id="First-row" transform="translate(42.000000, 793.000000)">
                <g id="shapes" transform="translate(760.000000, 2.000000)">
                    <g id="Capa_1">
                        <g id="Group">
                            <path d="M31,23.5680346 C26.9019741,23.5680346 23.5680346,26.9019741 23.5680346,31 C23.5680346,35.0980259 26.9019741,38.4319654 31,38.4319654 C35.0980259,38.4319654 38.4319654,35.0980259 38.4319654,31 C38.4319654,26.9019741 35.0980259,23.5680346 31,23.5680346 L31,23.5680346 Z M31,36.4233261 C28.0095378,36.4233261 25.5766739,33.9904622 25.5766739,31 C25.5766739,28.0095378 28.0095378,25.5766739 31,25.5766739 C33.9904622,25.5766739 36.4233261,28.0095378 36.4233261,31 C36.4233261,33.9904622 33.9904622,36.4233261 31,36.4233261 L31,36.4233261 Z" id="Shape"></path>
                            <path d="M31,27.8531317 C30.4453477,27.8531317 29.9956803,28.3027991 29.9956803,28.8574514 C29.9956803,29.4121037 30.4453477,29.8617711 31,29.8617711 C31.6276328,29.8617711 32.1382289,30.3723672 32.1382289,31 C32.1382289,31.5546523 32.5878963,32.0043197 33.1425486,32.0043197 C33.6972009,32.0043197 34.1468683,31.5546523 34.1468683,31 C34.1468683,29.2648035 32.7351965,27.8531317 31,27.8531317 L31,27.8531317 Z" id="Shape"></path>
                            <path d="M62,31 C62,27.6821296 58.643162,24.6560475 52.548013,22.4792181 C52.3729935,22.4166825 52.1960994,22.3550842 52.0175983,22.2942894 C52.1007559,22.125162 52.1823067,21.9564363 52.2618488,21.788514 C55.0325659,15.9392225 55.2665054,11.4258099 52.9202808,9.07971922 C50.5740562,6.73362851 46.0606436,6.96743413 40.211486,9.73815119 C40.0435637,9.8176933 39.874838,9.89924406 39.7057106,9.98240173 C39.6449158,9.80390065 39.5833175,9.62700648 39.5207819,9.45198704 C37.3439525,3.35683801 34.3178704,0 31,0 C27.6821296,0 24.6560475,3.35683801 22.4792181,9.45198704 C22.4166825,9.62700648 22.3550842,9.80390065 22.2942894,9.98240173 C22.125162,9.89924406 21.9564363,9.8176933 21.788514,9.73815119 C15.9389546,6.96743413 11.4258099,6.7334946 9.07971922,9.07971922 C6.73362851,11.4259438 6.96756803,15.9392225 9.73815119,21.788514 C9.8176933,21.9564363 9.89924406,22.125162 9.98240173,22.2942894 C9.80390065,22.3550842 9.62700648,22.4166825 9.45198704,22.4792181 C3.35683801,24.6560475 0,27.6821296 0,31 C0,34.3178704 3.35683801,37.3439525 9.45198704,39.5207819 C9.62700648,39.5833175 9.80390065,39.6449158 9.98240173,39.7057106 C9.89924406,39.874838 9.8176933,40.0435637 9.73815119,40.211486 C6.96743413,46.0607775 6.7334946,50.5741901 9.07971922,52.9202808 C10.1505918,53.9911533 11.6727387,54.5243801 13.5675551,54.5243801 C15.8241944,54.5243801 18.6089719,53.7679266 21.7886479,52.2617149 C21.9565702,52.1821728 22.1252959,52.100622 22.2944233,52.0174644 C22.3552181,52.1959654 22.4168164,52.3728596 22.4793521,52.547879 C24.6560475,58.643162 27.6821296,62 31,62 C34.3178704,62 37.3439525,58.643162 39.5207819,52.548013 C39.5833175,52.3729935 39.6449158,52.1960994 39.7057106,52.0175983 C39.874838,52.1007559 40.0435637,52.1823067 40.211486,52.2618488 C43.3914298,53.7681944 46.1758056,54.5246479 48.4324449,54.524514 C50.3268596,54.5243801 51.849676,53.9910194 52.9202808,52.9204147 C55.2663715,50.574324 55.0325659,46.0609114 52.2618488,40.2116199 C52.1823067,40.0436976 52.1007559,39.8749719 52.0175983,39.7058445 C52.1960994,39.6450497 52.3729935,39.5834514 52.548013,39.5209158 C58.643162,37.3439525 62,34.3178704 62,31 L62,31 Z M41.0713175,11.5534255 C43.9886652,10.1716156 46.5065616,9.47060043 48.4257495,9.47060043 C49.7640389,9.47060043 50.8113434,9.81153348 51.499905,10.500095 C53.1759136,12.1761037 52.7918618,15.9771188 50.4464406,20.9286825 C50.3275292,21.1796285 50.2029935,21.4325832 50.0756458,21.6864752 C47.6121166,20.976622 44.8881339,20.4139352 41.9875248,20.0126091 C41.5860648,17.1118661 41.0235119,14.3880173 40.3135248,11.9244881 C40.5675508,11.7968726 40.8203715,11.6723369 41.0713175,11.5534255 L41.0713175,11.5534255 Z M40.7084233,31 C40.7084233,32.3439136 40.6760173,33.6730972 40.6137495,34.9820605 C39.7322246,35.9516976 38.8152138,36.9145054 37.8648596,37.8648596 C36.9146393,38.8150799 35.9516976,39.7322246 34.9820605,40.6137495 C33.6732311,40.6760173 32.3439136,40.7084233 31,40.7084233 C29.6560864,40.7084233 28.3267689,40.6760173 27.0178056,40.6137495 C26.0481685,39.7322246 25.0853607,38.8152138 24.1350065,37.8648596 C23.1847862,36.9146393 22.2676415,35.9516976 21.3861166,34.9820605 C21.3239827,33.6730972 21.2915767,32.3439136 21.2915767,31 C21.2915767,29.6560864 21.3239827,28.3269028 21.3862505,27.0178056 C22.2677754,26.0481685 23.1847862,25.0853607 24.1351404,24.1350065 C25.0853607,23.1847862 26.0483024,22.2676415 27.0179395,21.3861166 C28.3269028,21.3238488 29.6562203,21.2914428 31.0001339,21.2914428 C32.3440475,21.2914428 33.673365,21.3238488 34.9823283,21.3861166 C35.9519654,22.2676415 36.9147732,23.1846523 37.8651274,24.1350065 C38.8153477,25.0852268 39.7324924,26.0481685 40.6140173,27.0178056 C40.6760173,28.3269028 40.7084233,29.6560864 40.7084233,31 L40.7084233,31 Z M39.2852354,22.7147646 C38.9084147,22.3379438 38.5295853,21.9663456 38.1490151,21.599568 C38.8382462,21.6602289 39.5194428,21.7297279 40.1920691,21.807797 C40.2701382,22.4804233 40.3396371,23.1617538 40.4002981,23.850851 C40.0335205,23.4705486 39.6619222,23.0915853 39.2852354,22.7147646 L39.2852354,22.7147646 Z M35.7974341,19.417784 C34.7502635,18.4825616 33.6957279,17.5880475 32.6398531,16.7402678 C34.6233175,15.2633823 36.5923197,13.9687473 38.5010626,12.8907775 C39.0883888,15.0027948 39.5652397,17.3104536 39.923581,19.7572441 C38.5773909,19.6100778 37.1991965,19.4969244 35.7974341,19.417784 L35.7974341,19.417784 Z M32.5919136,19.2978013 C32.0635076,19.2880259 31.5328251,19.2829374 31,19.2829374 C30.4671749,19.2829374 29.9364924,19.2881598 29.4080864,19.2978013 C29.9382333,18.8533564 30.4691836,18.4208294 31,18.0003542 C31.5308164,18.4208294 32.0617667,18.8533564 32.5919136,19.2978013 L32.5919136,19.2978013 Z M26.2025659,19.417784 C24.8008035,19.4969244 23.4226091,19.6100778 22.0765529,19.7572441 C22.4348942,17.3104536 22.9116112,15.0026609 23.4990713,12.8907775 C25.4078143,13.9688812 27.3766825,15.2635162 29.3602808,16.7402678 C28.3042721,17.5880475 27.2496026,18.4825616 26.2025659,19.417784 L26.2025659,19.417784 Z M23.8509849,21.5997019 C23.4705486,21.9664795 23.0915853,22.3380778 22.7147646,22.7148985 C22.3379438,23.0917192 21.9663456,23.4705486 21.599568,23.8511188 C21.6602289,23.1620216 21.7297279,22.4806911 21.807797,21.8080648 C22.4805572,21.7298618 23.1617538,21.6603629 23.8509849,21.5997019 L23.8509849,21.5997019 Z M19.417784,26.2025659 C18.4825616,27.2496026 17.5880475,28.3042721 16.7402678,29.3601469 C15.2633823,27.3766825 13.9687473,25.4076803 12.8907775,23.4989374 C15.0027948,22.9116112 17.3104536,22.4347603 19.7572441,22.076419 C19.6100778,23.4226091 19.4969244,24.8008035 19.417784,26.2025659 L19.417784,26.2025659 Z M19.2978013,29.4080864 C19.2880259,29.9364924 19.2829374,30.4671749 19.2829374,31 C19.2829374,31.5328251 19.2881598,32.0635076 19.2978013,32.5919136 C18.8533564,32.0617667 18.4208294,31.5308164 18.0003542,31 C18.4208294,30.4691836 18.8533564,29.9382333 19.2978013,29.4080864 L19.2978013,29.4080864 Z M19.417784,35.7974341 C19.4969244,37.1991965 19.6100778,38.5773909 19.7572441,39.923581 C17.3104536,39.5652397 15.0026609,39.0885227 12.8907775,38.5010626 C13.9688812,36.5923197 15.2635162,34.6233175 16.7402678,32.6398531 C17.5880475,33.6957279 18.4825616,34.7503974 19.417784,35.7974341 L19.417784,35.7974341 Z M21.5997019,38.1490151 C21.9664795,38.5295853 22.3380778,38.9084147 22.7148985,39.2852354 C23.0917192,39.6620562 23.4705486,40.0336544 23.8511188,40.400432 C23.1618877,40.3397711 22.4806911,40.2702721 21.8080648,40.192203 C21.7298618,39.5194428 21.6603629,38.8381123 21.5997019,38.1490151 L21.5997019,38.1490151 Z M26.2025659,42.582216 C27.2497365,43.5174384 28.3042721,44.4119525 29.3601469,45.2597322 C27.3766825,46.7366177 25.4076803,48.0312527 23.4989374,49.1092225 C22.9116112,46.9972052 22.4347603,44.6895464 22.076419,42.2427559 C23.4226091,42.3899222 24.8008035,42.5030756 26.2025659,42.582216 L26.2025659,42.582216 Z M29.4080864,42.7021987 C29.9364924,42.7119741 30.4671749,42.7170626 31,42.7170626 C31.5328251,42.7170626 32.0635076,42.7118402 32.5919136,42.7021987 C32.0617667,43.1466436 31.5308164,43.5791706 31,43.9996458 C30.4691836,43.5791706 29.9382333,43.1466436 29.4080864,42.7021987 L29.4080864,42.7021987 Z M35.7974341,42.582216 C37.1991965,42.5030756 38.5773909,42.3899222 39.9234471,42.2427559 C39.5651058,44.6895464 39.0883888,46.9973391 38.5009287,49.1092225 C36.5921857,48.0311188 34.6233175,46.7364838 32.6397192,45.2597322 C33.6957279,44.4119525 34.7503974,43.5174384 35.7974341,42.582216 L35.7974341,42.582216 Z M38.1490151,40.4002981 C38.5294514,40.0335205 38.9084147,39.6619222 39.2852354,39.2851015 C39.6620562,38.9082808 40.0336544,38.5294514 40.400432,38.1488812 C40.3397711,38.8381123 40.2702721,39.5194428 40.192203,40.1920691 C39.5194428,40.2701382 38.8382462,40.3396371 38.1490151,40.4002981 L38.1490151,40.4002981 Z M42.582216,35.7974341 C43.5174384,34.7502635 44.4119525,33.6957279 45.2597322,32.6398531 C46.7366177,34.6234514 48.0312527,36.5923197 49.1092225,38.5010626 C46.9972052,39.0883888 44.6895464,39.5652397 42.2427559,39.923581 C42.3899222,38.5773909 42.5030756,37.1991965 42.582216,35.7974341 L42.582216,35.7974341 Z M42.7021987,32.5919136 C42.7119741,32.0635076 42.7170626,31.5328251 42.7170626,31 C42.7170626,30.4671749 42.7118402,29.9364924 42.7021987,29.4080864 C43.1466436,29.9382333 43.5791706,30.4691836 43.9996458,31 C43.5791706,31.5308164 43.1466436,32.0616328 42.7021987,32.5919136 L42.7021987,32.5919136 Z M42.582216,26.2025659 C42.5030756,24.8008035 42.3899222,23.4226091 42.2427559,22.076419 C44.6895464,22.4347603 46.9972052,22.9114773 49.1092225,23.4989374 C48.0311188,25.4076803 46.7364838,27.3765486 45.2597322,29.3601469 C44.4119525,28.3041382 43.5174384,27.2496026 42.582216,26.2025659 L42.582216,26.2025659 Z M24.3708207,10.1275594 C26.2135464,4.96790065 28.6298056,2.00863931 31,2.00863931 C33.3701944,2.00863931 35.7864536,4.96790065 37.6291793,10.1275594 C37.722514,10.3890842 37.8133045,10.6559654 37.9027559,10.9255248 C35.658838,12.1655248 33.3348423,13.6938315 31,15.4610324 C28.6650238,13.6938315 26.341162,12.1655248 24.0972441,10.9255248 C24.1865616,10.6560994 24.2773521,10.3890842 24.3708207,10.1275594 L24.3708207,10.1275594 Z M11.5534255,20.9285486 C9.20800432,15.9769849 8.82408639,12.1759698 10.4999611,10.4999611 C11.1886566,9.81126566 12.2355594,9.47046652 13.5741166,9.47046652 C15.4933045,9.47046652 18.0116026,10.1716156 20.9285486,11.5532916 C21.1794946,11.672203 21.4324492,11.7967387 21.6862073,11.9240864 C20.9763542,14.3876156 20.4136674,17.1115983 20.0122073,20.0122073 C17.1115983,20.4136674 14.3876156,20.9762203 11.9240864,21.6860734 C11.7968726,21.4324492 11.6723369,21.1794946 11.5534255,20.9285486 L11.5534255,20.9285486 Z M10.1275594,37.6291793 C4.96790065,35.7864536 2.00863931,33.3701944 2.00863931,31 C2.00863931,28.6298056 4.96790065,26.2135464 10.1275594,24.3708207 C10.3890842,24.2773521 10.6559654,24.1866955 10.9255248,24.0972441 C12.1655248,26.341162 13.6938315,28.6651577 15.4610324,31 C13.6938315,33.3349762 12.1655248,35.658838 10.9255248,37.9027559 C10.6560994,37.8134384 10.3890842,37.7226479 10.1275594,37.6291793 L10.1275594,37.6291793 Z M20.9286825,50.4465745 C15.9771188,52.7919957 12.1761037,53.1759136 10.500095,51.5000389 C8.82408639,49.8240302 9.20813823,46.0230151 11.5535594,41.0714514 C11.6724708,40.8205054 11.7970065,40.5675508 11.9243542,40.3137927 C14.3878834,41.0236458 17.1118661,41.5863326 20.0124752,41.9877927 C20.4139352,44.8884017 20.9764881,47.6123844 21.6864752,50.0759136 C21.4324492,50.2031274 21.1796285,50.3276631 20.9286825,50.4465745 L20.9286825,50.4465745 Z M37.6291793,51.8724406 C35.7864536,57.0320994 33.3701944,59.9913607 31,59.9913607 C28.6298056,59.9913607 26.2135464,57.0320994 24.3708207,51.8724406 C24.277486,51.6109158 24.1866955,51.3440346 24.0972441,51.0744752 C26.341162,49.8344752 28.6651577,48.3061685 31,46.5389676 C33.3349762,48.3061685 35.658838,49.8344752 37.9027559,51.0744752 C37.8134384,51.3439006 37.7226479,51.6109158 37.6291793,51.8724406 L37.6291793,51.8724406 Z M50.4465745,41.0713175 C52.7919957,46.0228812 53.1759136,49.8238963 51.5000389,51.499905 C49.8241641,53.1759136 46.0230151,52.7918618 41.0714514,50.4464406 C40.8205054,50.3275292 40.5675508,50.2029935 40.3137927,50.0756458 C41.0236458,47.6121166 41.5863326,44.8881339 41.9877927,41.9875248 C44.8884017,41.5860648 47.6123844,41.0235119 50.0759136,40.3135248 C50.2031274,40.5675508 50.3276631,40.8203715 50.4465745,41.0713175 L50.4465745,41.0713175 Z M46.5388337,31 C48.3060346,28.6650238 49.8343413,26.3410281 51.0743413,24.0972441 C51.3439006,24.1866955 51.6109158,24.2773521 51.8723067,24.3708207 C57.0320994,26.2135464 59.9913607,28.6298056 59.9913607,31 C59.9913607,33.3701944 57.0320994,35.7864536 51.8724406,37.6291793 C51.6109158,37.7226479 51.3440346,37.8133045 51.0744752,37.9027559 C49.8343413,35.658838 48.3060346,33.3349762 46.5388337,31 L46.5388337,31 Z" id="Shape"></path>
                        </g>
                    </g>
                </g>
            </g>
        </g>
    </g>
</svg>