<?xml version="1.0" encoding="UTF-8" standalone="no"?>
<svg width="62px" height="64px" viewBox="0 0 62 64" version="1.1" xmlns="http://www.w3.org/2000/svg" xmlns:xlink="http://www.w3.org/1999/xlink">
    <!-- Generator: Sketch 3.6.1 (26313) - http://www.bohemiancoding.com/sketch -->
    <title>technology</title>
    <desc>Created with Sketch.</desc>
    <defs></defs>
    <g id="Page-1" stroke="none" stroke-width="1" fill="none" fill-rule="evenodd">
        <g id="Desktop" transform="translate(-481.000000, -793.000000)" fill="#FFDA44">
            <g id="First-row" transform="translate(42.000000, 793.000000)">
                <g id="technology" transform="translate(439.000000, 0.000000)">
                    <g id="Capa_1">
                        <g id="Group">
                            <path d="M54.3020134,0 L7.69798658,0 C3.45327517,0 0,3.44148596 0,7.67170626 L0,56.3282937 C0,60.558514 3.45327517,64 7.69798658,64 L54.3020134,64 C58.5467248,64 62,60.558514 62,56.3282937 L62,7.67170626 C62,3.44148596 58.5467248,0 54.3020134,0 L54.3020134,0 Z M59.9194631,56.3282937 C59.9194631,59.4152225 57.3995168,61.9265659 54.3020134,61.9265659 L7.69798658,61.9265659 C4.60048322,61.9265659 2.08053691,59.4152225 2.08053691,56.3282937 L2.08053691,7.67170626 C2.08053691,4.58477754 4.60048322,2.07343413 7.69798658,2.07343413 L54.3020134,2.07343413 C57.3995168,2.07343413 59.9194631,4.58477754 59.9194631,7.67170626 L59.9194631,56.3282937 L59.9194631,56.3282937 Z" id="Shape"></path>
                            <path d="M17.6845638,43.1274298 L8.80760626,43.1274298 C7.01029978,43.1274298 5.54809843,44.5846393 5.54809843,46.3758099 L5.54809843,55.2224622 C5.54809843,57.0136328 7.01029978,58.4708423 8.80760626,58.4708423 L17.6845638,58.4708423 C19.4818702,58.4708423 20.9440716,57.0136328 20.9440716,55.2224622 L20.9440716,46.3758099 C20.9440716,44.5846393 19.4818702,43.1274298 17.6845638,43.1274298 L17.6845638,43.1274298 Z M18.8635347,55.2224622 C18.8635347,55.8703413 18.3346622,56.3974082 17.6845638,56.3974082 L8.80760626,56.3974082 C8.15750783,56.3974082 7.62863535,55.8703413 7.62863535,55.2224622 L7.62863535,46.3758099 C7.62863535,45.7279309 8.15750783,45.2008639 8.80760626,45.2008639 L17.6845638,45.2008639 C18.3346622,45.2008639 18.8635347,45.7279309 18.8635347,46.3758099 L18.8635347,55.2224622 L18.8635347,55.2224622 Z" id="Shape"></path>
                            <path d="M17.6845638,25.4341253 L8.80760626,25.4341253 C7.01029978,25.4341253 5.54809843,26.8913348 5.54809843,28.6825054 L5.54809843,37.5291577 C5.54809843,39.3203283 7.01029978,40.7775378 8.80760626,40.7775378 L17.6845638,40.7775378 C19.4818702,40.7775378 20.9440716,39.3203283 20.9440716,37.5291577 L20.9440716,28.6825054 C20.9440716,26.8913348 19.4818702,25.4341253 17.6845638,25.4341253 L17.6845638,25.4341253 Z M18.8635347,37.5291577 C18.8635347,38.1770367 18.3346622,38.7041037 17.6845638,38.7041037 L8.80760626,38.7041037 C8.15750783,38.7041037 7.62863535,38.1770367 7.62863535,37.5291577 L7.62863535,28.6825054 C7.62863535,28.0346263 8.15750783,27.5075594 8.80760626,27.5075594 L17.6845638,27.5075594 C18.3346622,27.5075594 18.8635347,28.0346263 18.8635347,28.6825054 L18.8635347,37.5291577 L18.8635347,37.5291577 Z" id="Shape"></path>
                            <path d="M35.4384787,43.1274298 L26.5615213,43.1274298 C24.7642148,43.1274298 23.3020134,44.5846393 23.3020134,46.3758099 L23.3020134,55.2224622 C23.3020134,57.0136328 24.7642148,58.4708423 26.5615213,58.4708423 L35.4384787,58.4708423 C37.2357852,58.4708423 38.6979866,57.0136328 38.6979866,55.2224622 L38.6979866,46.3758099 C38.6979866,44.5846393 37.2357852,43.1274298 35.4384787,43.1274298 L35.4384787,43.1274298 Z M36.6174497,55.2224622 C36.6174497,55.8703413 36.0885772,56.3974082 35.4384787,56.3974082 L26.5615213,56.3974082 C25.9114228,56.3974082 25.3825503,55.8703413 25.3825503,55.2224622 L25.3825503,46.3758099 C25.3825503,45.7279309 25.9114228,45.2008639 26.5615213,45.2008639 L35.4384787,45.2008639 C36.0885772,45.2008639 36.6174497,45.7279309 36.6174497,46.3758099 L36.6174497,55.2224622 L36.6174497,55.2224622 Z" id="Shape"></path>
                            <path d="M35.4384787,25.4341253 L26.5615213,25.4341253 C24.7642148,25.4341253 23.3020134,26.8913348 23.3020134,28.6825054 L23.3020134,37.5291577 C23.3020134,39.3203283 24.7642148,40.7775378 26.5615213,40.7775378 L35.4384787,40.7775378 C37.2357852,40.7775378 38.6979866,39.3203283 38.6979866,37.5291577 L38.6979866,28.6825054 C38.6979866,26.8913348 37.2357852,25.4341253 35.4384787,25.4341253 L35.4384787,25.4341253 Z M36.6174497,37.5291577 C36.6174497,38.1770367 36.0885772,38.7041037 35.4384787,38.7041037 L26.5615213,38.7041037 C25.9114228,38.7041037 25.3825503,38.1770367 25.3825503,37.5291577 L25.3825503,28.6825054 C25.3825503,28.0346263 25.9114228,27.5075594 26.5615213,27.5075594 L35.4384787,27.5075594 C36.0885772,27.5075594 36.6174497,28.0346263 36.6174497,28.6825054 L36.6174497,37.5291577 L36.6174497,37.5291577 Z" id="Shape"></path>
                            <path d="M53.1923937,25.4341253 L44.3154362,25.4341253 C42.5181298,25.4341253 41.0559284,26.8913348 41.0559284,28.6825054 L41.0559284,55.2224622 C41.0559284,57.0136328 42.5181298,58.4708423 44.3154362,58.4708423 L53.1923937,58.4708423 C54.9897002,58.4708423 56.4519016,57.0136328 56.4519016,55.2224622 L56.4519016,28.6825054 C56.4519016,26.8913348 54.9897002,25.4341253 53.1923937,25.4341253 L53.1923937,25.4341253 Z M54.3713647,55.2224622 C54.3713647,55.8703413 53.8424922,56.3974082 53.1923937,56.3974082 L44.3154362,56.3974082 C43.6653378,56.3974082 43.1364653,55.8703413 43.1364653,55.2224622 L43.1364653,28.6825054 C43.1364653,28.0346263 43.6653378,27.5075594 44.3154362,27.5075594 L53.1923937,27.5075594 C53.8424922,27.5075594 54.3713647,28.0346263 54.3713647,28.6825054 L54.3713647,55.2224622 L54.3713647,55.2224622 Z" id="Shape"></path>
                            <path d="M53.1923937,5.52915767 L8.80760626,5.52915767 C7.01029978,5.52915767 5.54809843,6.98636717 5.54809843,8.7775378 L5.54809843,19.8358531 C5.54809843,21.6270238 7.01029978,23.0842333 8.80760626,23.0842333 L53.1923937,23.0842333 C54.9897002,23.0842333 56.4519016,21.6270238 56.4519016,19.8358531 L56.4519016,8.7775378 C56.4519016,6.98636717 54.9897002,5.52915767 53.1923937,5.52915767 L53.1923937,5.52915767 Z M54.3713647,19.8358531 C54.3713647,20.4837322 53.8424922,21.0107991 53.1923937,21.0107991 L8.80760626,21.0107991 C8.15750783,21.0107991 7.62863535,20.4837322 7.62863535,19.8358531 L7.62863535,8.7775378 C7.62863535,8.12965875 8.15750783,7.60259179 8.80760626,7.60259179 L53.1923937,7.60259179 C53.8424922,7.60259179 54.3713647,8.12965875 54.3713647,8.7775378 L54.3713647,19.8358531 L54.3713647,19.8358531 Z" id="Shape"></path>
                            <path d="M15.4653244,32.0691145 L14.2863535,32.0691145 L14.2863535,30.8941685 C14.2863535,30.3216242 13.8205906,29.8574514 13.246085,29.8574514 C12.6715794,29.8574514 12.2058166,30.3216242 12.2058166,30.8941685 L12.2058166,32.0691145 L11.0268456,32.0691145 C10.45234,32.0691145 9.98657718,32.5332873 9.98657718,33.1058315 C9.98657718,33.6783758 10.45234,34.1425486 11.0268456,34.1425486 L12.2058166,34.1425486 L12.2058166,35.3174946 C12.2058166,35.8900389 12.6715794,36.3542117 13.246085,36.3542117 C13.8205906,36.3542117 14.2863535,35.8900389 14.2863535,35.3174946 L14.2863535,34.1425486 L15.4653244,34.1425486 C16.03983,34.1425486 16.5055928,33.6783758 16.5055928,33.1058315 C16.5055928,32.5332873 16.03983,32.0691145 15.4653244,32.0691145 L15.4653244,32.0691145 Z" id="Shape"></path>
                            <path d="M33.2192394,32.0691145 L28.7807606,32.0691145 C28.206255,32.0691145 27.7404922,32.5332873 27.7404922,33.1058315 C27.7404922,33.6783758 28.206255,34.1425486 28.7807606,34.1425486 L33.2192394,34.1425486 C33.793745,34.1425486 34.2595078,33.6783758 34.2595078,33.1058315 C34.2595078,32.5332873 33.793745,32.0691145 33.2192394,32.0691145 L33.2192394,32.0691145 Z" id="Shape"></path>
                            <path d="M33.2192394,49.762419 L28.7807606,49.762419 C28.206255,49.762419 27.7404922,50.2265918 27.7404922,50.7991361 C27.7404922,51.3716803 28.206255,51.8358531 28.7807606,51.8358531 L33.2192394,51.8358531 C33.793745,51.8358531 34.2595078,51.3716803 34.2595078,50.7991361 C34.2595078,50.2265918 33.793745,49.762419 33.2192394,49.762419 L33.2192394,49.762419 Z" id="Shape"></path>
                            <path d="M31,48.5183585 C31.2732438,48.5183585 31.5423266,48.4077754 31.735123,48.2142549 C31.9293065,48.0221166 32.0402685,47.7539525 32.0402685,47.4816415 C32.0402685,47.2093305 31.9293065,46.9411663 31.735123,46.7490281 C31.5423266,46.5555076 31.2732438,46.4449244 31,46.4449244 C30.7267562,46.4449244 30.4576734,46.5555076 30.264877,46.7490281 C30.0706935,46.9411663 29.9597315,47.2079482 29.9597315,47.4816415 C29.9597315,47.7553348 30.0706935,48.0221166 30.264877,48.2142549 C30.4576734,48.4077754 30.7267562,48.5183585 31,48.5183585 L31,48.5183585 Z" id="Shape"></path>
                            <path d="M31,53.0799136 C30.7267562,53.0799136 30.4576734,53.1904968 30.264877,53.3840173 C30.0706935,53.5761555 29.9597315,53.8443197 29.9597315,54.1166307 C29.9597315,54.3889417 30.0706935,54.6571058 30.264877,54.8492441 C30.4576734,55.0427646 30.7267562,55.1533477 31,55.1533477 C31.2746309,55.1533477 31.5423266,55.0427646 31.735123,54.8492441 C31.9293065,54.6557235 32.0402685,54.3889417 32.0402685,54.1166307 C32.0402685,53.8443197 31.9293065,53.5761555 31.735123,53.3840173 C31.5423266,53.1904968 31.2746309,53.0799136 31,53.0799136 L31,53.0799136 Z" id="Shape"></path>
                            <path d="M50.9731544,43.1274298 L46.5346756,43.1274298 C45.96017,43.1274298 45.4944072,43.5916026 45.4944072,44.1641469 C45.4944072,44.7366911 45.96017,45.2008639 46.5346756,45.2008639 L50.9731544,45.2008639 C51.54766,45.2008639 52.0134228,44.7366911 52.0134228,44.1641469 C52.0134228,43.5916026 51.54766,43.1274298 50.9731544,43.1274298 L50.9731544,43.1274298 Z" id="Shape"></path>
                            <path d="M50.9731544,38.7041037 L46.5346756,38.7041037 C45.96017,38.7041037 45.4944072,39.1682765 45.4944072,39.7408207 C45.4944072,40.313365 45.96017,40.7775378 46.5346756,40.7775378 L50.9731544,40.7775378 C51.54766,40.7775378 52.0134228,40.313365 52.0134228,39.7408207 C52.0134228,39.1682765 51.54766,38.7041037 50.9731544,38.7041037 L50.9731544,38.7041037 Z" id="Shape"></path>
                            <path d="M16.2008635,47.8544449 C15.794604,47.4495724 15.135906,47.4495724 14.7297852,47.8544449 L13.246085,49.3330799 L11.7623848,47.8544449 C11.3561253,47.4495724 10.6974273,47.4495724 10.2913065,47.8544449 C9.88504698,48.2593175 9.88504698,48.9157667 10.2913065,49.3205011 L11.7750067,50.7991361 L10.2913065,52.2777711 C9.88504698,52.6826436 9.88504698,53.3390929 10.2913065,53.7438272 C10.4943669,53.9463326 10.7606756,54.0475162 11.0268456,54.0475162 C11.2930157,54.0475162 11.5593244,53.9463326 11.7623848,53.7438272 L13.246085,52.2651922 L14.7297852,53.7438272 C14.9328456,53.9461944 15.1991544,54.0475162 15.4653244,54.0475162 C15.7314944,54.0475162 15.9978031,53.9463326 16.2008635,53.7438272 C16.607123,53.3389546 16.607123,52.6825054 16.2008635,52.2777711 L14.7171633,50.7991361 L16.2008635,49.3205011 C16.607123,48.9157667 16.607123,48.2591793 16.2008635,47.8544449 L16.2008635,47.8544449 Z" id="Shape"></path>
                        </g>
                    </g>
                </g>
            </g>
        </g>
    </g>
</svg>